<?xml version="1.0" encoding="UTF-8" standalone="no"?>
<svg
   width="145.919998pt"
   height="145.919998pt"
   viewBox="0 0 145.919998 145.919998"
   version="1.1"
   id="svg49"
   xmlns="http://www.w3.org/2000/svg"
   xmlns:svg="http://www.w3.org/2000/svg">
  <defs
     id="defs5">
    <clipPath
       id="clip-0">
      <path
         clip-rule="nonzero"
         d="M 0 0 L 145.921875 0 L 145.921875 145.246094 L 0 145.246094 Z M 0 0 "
         id="path2" />
    </clipPath>
  </defs>
  <path
     fill-rule="nonzero"
     fill="rgb(100%, 100%, 100%)"
     fill-opacity="1"
     d="M 144.117188 72.625 C 144.117188 73.792969 144.089844 74.964844 144.03125 76.132813 C 143.976563 77.300781 143.890625 78.46875 143.773438 79.632813 C 143.660156 80.796875 143.515625 81.957031 143.34375 83.113281 C 143.171875 84.273438 142.972656 85.425781 142.746094 86.570313 C 142.515625 87.71875 142.261719 88.859375 141.976563 89.996094 C 141.691406 91.128906 141.378906 92.257813 141.039063 93.378906 C 140.699219 94.496094 140.332031 95.609375 139.9375 96.710938 C 139.546875 97.8125 139.125 98.902344 138.675781 99.984375 C 138.230469 101.066406 137.753906 102.132813 137.253906 103.191406 C 136.753906 104.25 136.226563 105.292969 135.675781 106.324219 C 135.125 107.359375 134.546875 108.375 133.945313 109.378906 C 133.34375 110.382813 132.71875 111.371094 132.070313 112.34375 C 131.417969 113.316406 130.746094 114.273438 130.050781 115.214844 C 129.351563 116.152344 128.632813 117.074219 127.890625 117.980469 C 127.148438 118.882813 126.382813 119.769531 125.597656 120.636719 C 124.8125 121.503906 124.003906 122.351563 123.179688 123.179688 C 122.351563 124.003906 121.503906 124.8125 120.636719 125.597656 C 119.769531 126.382813 118.882813 127.148438 117.980469 127.890625 C 117.074219 128.632813 116.152344 129.351563 115.214844 130.050781 C 114.273438 130.746094 113.316406 131.417969 112.34375 132.070313 C 111.371094 132.71875 110.382813 133.34375 109.378906 133.945313 C 108.375 134.546875 107.359375 135.125 106.324219 135.675781 C 105.292969 136.226563 104.25 136.753906 103.191406 137.253906 C 102.132813 137.753906 101.066406 138.230469 99.984375 138.675781 C 98.902344 139.125 97.8125 139.546875 96.710938 139.9375 C 95.609375 140.332031 94.496094 140.699219 93.378906 141.039063 C 92.257813 141.378906 91.128906 141.691406 89.996094 141.976563 C 88.859375 142.261719 87.71875 142.515625 86.570313 142.746094 C 85.425781 142.972656 84.273438 143.171875 83.113281 143.34375 C 81.957031 143.515625 80.796875 143.660156 79.632813 143.773438 C 78.46875 143.890625 77.300781 143.976563 76.132813 144.03125 C 74.964844 144.089844 73.792969 144.117188 72.625 144.117188 C 71.453125 144.117188 70.285156 144.089844 69.117188 144.03125 C 67.945313 143.976563 66.78125 143.890625 65.617188 143.773438 C 64.453125 143.660156 63.289063 143.515625 62.132813 143.34375 C 60.976563 143.171875 59.824219 142.972656 58.675781 142.746094 C 57.527344 142.515625 56.386719 142.261719 55.25 141.976563 C 54.117188 141.691406 52.988281 141.378906 51.871094 141.039063 C 50.75 140.699219 49.640625 140.332031 48.539063 139.9375 C 47.4375 139.546875 46.34375 139.125 45.265625 138.675781 C 44.183594 138.230469 43.113281 137.753906 42.054688 137.253906 C 40.996094 136.753906 39.953125 136.226563 38.921875 135.675781 C 37.890625 135.125 36.871094 134.546875 35.867188 133.945313 C 34.863281 133.34375 33.875 132.71875 32.902344 132.070313 C 31.929688 131.417969 30.972656 130.746094 30.035156 130.050781 C 29.09375 129.351563 28.171875 128.632813 27.269531 127.890625 C 26.363281 127.148438 25.476563 126.382813 24.609375 125.597656 C 23.742188 124.8125 22.898438 124.003906 22.070313 123.179688 C 21.242188 122.351563 20.433594 121.503906 19.648438 120.636719 C 18.863281 119.769531 18.101563 118.882813 17.359375 117.980469 C 16.613281 117.074219 15.894531 116.152344 15.199219 115.214844 C 14.5 114.273438 13.828125 113.316406 13.179688 112.34375 C 12.527344 111.371094 11.902344 110.382813 11.300781 109.378906 C 10.699219 108.375 10.121094 107.359375 9.570313 106.324219 C 9.019531 105.292969 8.492188 104.25 7.992188 103.191406 C 7.492188 102.132813 7.019531 101.066406 6.570313 99.984375 C 6.125 98.902344 5.703125 97.8125 5.308594 96.710938 C 4.914063 95.609375 4.546875 94.496094 4.207031 93.378906 C 3.867188 92.257813 3.554688 91.128906 3.269531 89.996094 C 2.988281 88.859375 2.730469 87.71875 2.503906 86.570313 C 2.273438 85.425781 2.074219 84.273438 1.902344 83.113281 C 1.730469 81.957031 1.585938 80.796875 1.472656 79.632813 C 1.359375 78.46875 1.273438 77.300781 1.214844 76.132813 C 1.15625 74.964844 1.128906 73.792969 1.128906 72.625 C 1.128906 71.453125 1.15625 70.285156 1.214844 69.117188 C 1.273438 67.945313 1.359375 66.78125 1.472656 65.617188 C 1.585938 64.453125 1.730469 63.289063 1.902344 62.132813 C 2.074219 60.976563 2.273438 59.824219 2.503906 58.675781 C 2.730469 57.527344 2.988281 56.386719 3.269531 55.25 C 3.554688 54.117188 3.867188 52.988281 4.207031 51.871094 C 4.546875 50.75 4.914063 49.640625 5.308594 48.539063 C 5.703125 47.4375 6.125 46.34375 6.570313 45.265625 C 7.019531 44.183594 7.492188 43.113281 7.992188 42.054688 C 8.492188 40.996094 9.019531 39.953125 9.570313 38.921875 C 10.121094 37.890625 10.699219 36.871094 11.300781 35.867188 C 11.902344 34.863281 12.527344 33.875 13.179688 32.902344 C 13.828125 31.929688 14.5 30.972656 15.199219 30.035156 C 15.894531 29.09375 16.613281 28.171875 17.359375 27.269531 C 18.101563 26.363281 18.863281 25.476563 19.648438 24.609375 C 20.433594 23.742188 21.242188 22.898438 22.070313 22.070313 C 22.898438 21.242188 23.742188 20.433594 24.609375 19.648438 C 25.476563 18.863281 26.363281 18.101563 27.269531 17.359375 C 28.171875 16.613281 29.09375 15.894531 30.035156 15.199219 C 30.972656 14.5 31.929688 13.828125 32.902344 13.179688 C 33.875 12.527344 34.863281 11.902344 35.867188 11.300781 C 36.871094 10.699219 37.890625 10.121094 38.921875 9.570313 C 39.953125 9.019531 40.996094 8.492188 42.054688 7.992188 C 43.113281 7.492188 44.183594 7.019531 45.265625 6.570313 C 46.34375 6.125 47.4375 5.703125 48.539063 5.308594 C 49.640625 4.914063 50.75 4.546875 51.871094 4.207031 C 52.988281 3.867188 54.117188 3.554688 55.25 3.269531 C 56.386719 2.988281 57.527344 2.730469 58.675781 2.503906 C 59.824219 2.273438 60.976563 2.074219 62.132813 1.902344 C 63.289063 1.730469 64.453125 1.585938 65.617188 1.472656 C 66.78125 1.359375 67.945313 1.273438 69.117188 1.214844 C 70.285156 1.15625 71.453125 1.128906 72.625 1.128906 C 73.792969 1.128906 74.964844 1.15625 76.132813 1.214844 C 77.300781 1.273438 78.46875 1.359375 79.632813 1.472656 C 80.796875 1.585938 81.957031 1.730469 83.113281 1.902344 C 84.273438 2.074219 85.425781 2.273438 86.570313 2.503906 C 87.71875 2.730469 88.859375 2.988281 89.996094 3.269531 C 91.128906 3.554688 92.257813 3.867188 93.378906 4.207031 C 94.496094 4.546875 95.609375 4.914063 96.710938 5.308594 C 97.8125 5.703125 98.902344 6.125 99.984375 6.570313 C 101.066406 7.019531 102.132813 7.492188 103.191406 7.992188 C 104.25 8.492188 105.292969 9.019531 106.324219 9.570313 C 107.359375 10.121094 108.375 10.699219 109.378906 11.300781 C 110.382813 11.902344 111.371094 12.527344 112.34375 13.179688 C 113.316406 13.828125 114.273438 14.5 115.214844 15.199219 C 116.152344 15.894531 117.074219 16.613281 117.980469 17.359375 C 118.882813 18.101563 119.769531 18.863281 120.636719 19.648438 C 121.503906 20.433594 122.351563 21.242188 123.179688 22.070313 C 124.003906 22.898438 124.8125 23.742188 125.597656 24.609375 C 126.382813 25.476563 127.148438 26.363281 127.890625 27.269531 C 128.632813 28.171875 129.351563 29.09375 130.050781 30.035156 C 130.746094 30.972656 131.417969 31.929688 132.070313 32.902344 C 132.71875 33.875 133.34375 34.863281 133.945313 35.867188 C 134.546875 36.871094 135.125 37.890625 135.675781 38.921875 C 136.226563 39.953125 136.753906 40.996094 137.253906 42.054688 C 137.753906 43.113281 138.230469 44.183594 138.675781 45.265625 C 139.125 46.34375 139.546875 47.4375 139.9375 48.539063 C 140.332031 49.640625 140.699219 50.75 141.039063 51.871094 C 141.378906 52.988281 141.691406 54.117188 141.976563 55.25 C 142.261719 56.386719 142.515625 57.527344 142.746094 58.675781 C 142.972656 59.824219 143.171875 60.976563 143.34375 62.132813 C 143.515625 63.289063 143.660156 64.453125 143.773438 65.617188 C 143.890625 66.78125 143.976563 67.945313 144.03125 69.117188 C 144.089844 70.285156 144.117188 71.453125 144.117188 72.625 Z M 144.117188 72.625 "
     id="path7" />
  <g
     clip-path="url(#clip-0)"
     id="g11">
    <path
       fill="none"
       stroke-width="1"
       stroke-linecap="butt"
       stroke-linejoin="miter"
       stroke="#000000"
       stroke-opacity="1"
       stroke-miterlimit="4"
       d="m 190.9982,96.001723 c 0,1.551959 -0.0363,3.109108 -0.11419,4.661067 -0.0727,1.55196 -0.18686,3.10392 -0.34257,4.65068 -0.15053,1.54677 -0.34257,3.08835 -0.57096,4.62474 -0.22838,1.54158 -0.49309,3.07277 -0.79414,4.59359 -0.30624,1.52601 -0.64362,3.04163 -1.02253,4.55206 -0.37891,1.50525 -0.79415,3.0053 -1.24572,4.49497 -0.45157,1.48449 -0.93948,2.96378 -1.46372,4.4275 -0.51905,1.46372 -1.07962,2.91187 -1.67653,4.34964 -0.59172,1.43776 -1.22496,2.85477 -1.88934,4.26139 -0.66438,1.40663 -1.3651,2.79249 -2.09696,4.16278 -0.73186,1.37548 -1.50006,2.72501 -2.29939,4.05897 -0.79934,1.33396 -1.62982,2.64715 -2.49144,3.93959 -0.86681,1.29243 -1.75958,2.5641 -2.68349,3.81501 -0.9291,1.24572 -1.88415,2.47068 -2.87034,3.67488 -0.9862,1.199 -2.00353,2.37724 -3.04682,3.52953 -1.04329,1.15229 -2.11773,2.27863 -3.21292,3.37902 -1.10039,1.09519 -2.22673,2.16963 -3.37902,3.21292 -1.15229,1.04329 -2.33053,2.06062 -3.52953,3.04682 -1.2042,0.98619 -2.42916,1.94124 -3.67488,2.87034 -1.25091,0.92391 -2.52258,1.81668 -3.81501,2.68349 -1.29244,0.86162 -2.60563,1.6921 -3.93959,2.49144 -1.33396,0.79933 -2.68349,1.56753 -4.05897,2.29939 -1.37029,0.73186 -2.75615,1.43258 -4.16278,2.09696 -1.40662,0.66438 -2.82363,1.29762 -4.26139,1.88934 -1.43777,0.59691 -2.88592,1.15748 -4.34964,1.67653 -1.46372,0.52424 -2.94301,1.01215 -4.4275,1.46372 -1.48967,0.45157 -2.98972,0.86681 -4.49497,1.24572 -1.51043,0.37891 -3.02605,0.71629 -4.55206,1.02253 -1.52082,0.30105 -3.05201,0.56576 -4.59359,0.79414 -1.53639,0.22839 -3.07797,0.42043 -4.62474,0.57096 -1.54676,0.15571 -3.09872,0.2699 -4.65068,0.34257 -1.551959,0.0779 -3.109108,0.11419 -4.661067,0.11419 -1.557149,0 -3.109107,-0.0363 -4.661066,-0.11419 -1.557149,-0.0727 -3.103917,-0.18686 -4.650685,-0.34257 -1.546769,-0.15053 -3.093537,-0.34257 -4.629924,-0.57096 -1.536387,-0.22838 -3.067584,-0.49309 -4.59359,-0.79414 -1.526006,-0.30624 -3.041631,-0.64362 -4.552066,-1.02253 -1.505244,-0.37891 -3.005298,-0.79415 -4.48978,-1.24572 -1.489673,-0.45157 -2.963774,-0.93948 -4.427494,-1.46372 -1.46372,-0.51905 -2.91706,-1.07962 -4.349637,-1.67653 -1.437767,-0.59172 -2.859964,-1.22496 -4.266588,-1.88934 -1.406625,-0.66438 -2.792488,-1.3651 -4.162779,-2.09696 -1.370291,-0.73186 -2.725011,-1.50006 -4.058969,-2.29939 -1.333958,-0.79934 -2.647154,-1.62982 -3.939587,-2.49144 -1.292434,-0.86681 -2.564106,-1.75958 -3.809825,-2.68349 -1.25091,-0.9291 -2.475867,-1.88415 -3.674872,-2.87034 -1.204196,-0.9862 -2.382438,-2.00353 -3.534729,-3.04682 -1.15229,-1.04329 -2.273438,-2.11773 -3.373823,-3.21292 -1.100385,-1.10039 -2.174818,-2.22673 -3.218108,-3.37902 -1.04329,-1.15229 -2.055437,-2.33053 -3.041632,-3.52953 -0.991385,-1.2042 -1.946436,-2.42916 -2.870344,-3.67488 -0.929099,-1.25091 -1.821865,-2.52258 -2.683488,-3.81501 -0.866813,-1.29244 -1.697292,-2.60563 -2.496629,-3.93959 -0.799336,-1.33396 -1.56753,-2.68349 -2.29939,-4.05897 -0.73186,-1.37029 -1.432577,-2.75615 -2.096961,-4.16278 -0.664383,-1.40662 -1.292434,-2.82363 -1.889341,-4.26139 -0.591716,-1.43777 -1.15229,-2.88592 -1.67653,-4.34964 -0.524241,-1.46372 -1.012147,-2.94301 -1.463721,-4.4275 -0.451573,-1.48967 -0.866813,-2.98972 -1.245719,-4.49497 -0.373716,-1.51043 -0.716288,-3.02605 -1.017337,-4.55206 -0.30624,-1.52082 -0.570955,-3.05201 -0.799337,-4.59359 -0.228382,-1.53639 -0.42043,-3.07797 -0.570955,-4.62474 -0.150524,-1.54676 -0.264715,-3.09872 -0.342572,-4.65068 -0.077858,-1.551959 -0.114191,-3.109108 -0.114191,-4.661067 0,-1.557149 0.036333,-3.109107 0.114191,-4.661066 0.077857,-1.557149 0.192048,-3.103917 0.342572,-4.650685 0.150525,-1.546769 0.342573,-3.093537 0.570955,-4.629924 0.228382,-1.536387 0.493097,-3.067584 0.799337,-4.59359 0.301049,-1.526006 0.643621,-3.041631 1.017337,-4.552066 0.378906,-1.505244 0.794146,-3.005298 1.245719,-4.48978 0.451574,-1.489673 0.93948,-2.963774 1.463721,-4.427494 0.52424,-1.46372 1.084814,-2.91706 1.67653,-4.349637 0.596907,-1.437767 1.224958,-2.859964 1.889341,-4.266588 0.664384,-1.406625 1.365101,-2.792488 2.096961,-4.162779 0.73186,-1.370291 1.500054,-2.725011 2.29939,-4.058969 0.799337,-1.333958 1.629816,-2.647154 2.496629,-3.939587 0.861623,-1.292434 1.754389,-2.564106 2.683488,-3.809825 0.923908,-1.25091 1.878959,-2.475867 2.870344,-3.674872 0.986195,-1.204196 1.998342,-2.382438 3.041632,-3.534729 1.04329,-1.15229 2.117723,-2.273438 3.218108,-3.373823 1.100385,-1.100385 2.221533,-2.174818 3.373823,-3.218108 1.152291,-1.04329 2.330533,-2.055437 3.534729,-3.041632 1.199005,-0.991385 2.423962,-1.946436 3.674872,-2.870344 1.245719,-0.929099 2.517391,-1.821865 3.809825,-2.683488 1.292433,-0.866813 2.605629,-1.697292 3.939587,-2.496629 1.333958,-0.799336 2.688678,-1.56753 4.058969,-2.29939 1.370291,-0.73186 2.756154,-1.432577 4.162779,-2.096961 1.406624,-0.664383 2.828821,-1.292434 4.266588,-1.889341 1.432577,-0.591716 2.885917,-1.15229 4.349637,-1.67653 1.46372,-0.524241 2.937821,-1.012147 4.427494,-1.463721 1.484482,-0.451573 2.984536,-0.866813 4.48978,-1.245719 1.510435,-0.373716 3.02606,-0.716288 4.552066,-1.017337 1.526006,-0.30624 3.057203,-0.570955 4.59359,-0.799337 1.536387,-0.228382 3.083155,-0.42043 4.629924,-0.570955 1.546768,-0.150524 3.093536,-0.264715 4.650685,-0.342572 1.551959,-0.077858 3.103917,-0.114191 4.661066,-0.114191 1.551959,0 3.109108,0.036333 4.661067,0.114191 1.55196,0.077857 3.10392,0.192048 4.65068,0.342572 1.54677,0.150525 3.08835,0.342573 4.62474,0.570955 1.54158,0.228382 3.07277,0.493097 4.59359,0.799337 1.52601,0.301049 3.04163,0.643621 4.55206,1.017337 1.50525,0.378906 3.0053,0.794146 4.49497,1.245719 1.48449,0.451574 2.96378,0.93948 4.4275,1.463721 1.46372,0.52424 2.91187,1.084814 4.34964,1.67653 1.43776,0.596907 2.85477,1.224958 4.26139,1.889341 1.40663,0.664384 2.79249,1.365101 4.16278,2.096961 1.37548,0.73186 2.72501,1.500054 4.05897,2.29939 1.33396,0.799337 2.64715,1.629816 3.93959,2.496629 1.29243,0.861623 2.5641,1.754389 3.81501,2.683488 1.24572,0.923908 2.47068,1.878959 3.67488,2.870344 1.199,0.986195 2.37724,1.998342 3.52953,3.041632 1.15229,1.04329 2.27863,2.117723 3.37902,3.218108 1.09519,1.100385 2.16963,2.221533 3.21292,3.373823 1.04329,1.152291 2.06062,2.330533 3.04682,3.534729 0.98619,1.199005 1.94124,2.423962 2.87034,3.674872 0.92391,1.245719 1.81668,2.517391 2.68349,3.809825 0.86162,1.292433 1.6921,2.605629 2.49144,3.939587 0.79933,1.333958 1.56753,2.688678 2.29939,4.058969 0.73186,1.370291 1.43258,2.756154 2.09696,4.162779 0.66438,1.406624 1.29762,2.828821 1.88934,4.266588 0.59691,1.432577 1.15748,2.885917 1.67653,4.349637 0.52424,1.46372 1.01215,2.937821 1.46372,4.427494 0.45157,1.484482 0.86681,2.984536 1.24572,4.48978 0.37891,1.510435 0.71629,3.02606 1.02253,4.552066 0.30105,1.526006 0.56576,3.057203 0.79414,4.59359 0.22839,1.536387 0.42043,3.083155 0.57096,4.629924 0.15571,1.546768 0.2699,3.093536 0.34257,4.650685 0.0779,1.551959 0.11419,3.103917 0.11419,4.661066 z m 0,0"
       transform="matrix(0.752577,0,0,0.752577,0.376289,0.376289)"
       id="path9" />
  </g>
  <path
     fill="none"
     stroke-width="1"
     stroke-linecap="butt"
     stroke-linejoin="miter"
     stroke="rgb(0%, 0%, 0%)"
     stroke-opacity="1"
     stroke-miterlimit="10"
     d="M 96.001723 91.06037 L 96.157438 1.000054 "
     transform="matrix(0.752577, 0, 0, 0.752577, 0.376289, 0.376289)"
     id="path13" />
  <path
     fill="none"
     stroke-width="1"
     stroke-linecap="butt"
     stroke-linejoin="miter"
     stroke="rgb(0%, 0%, 0%)"
     stroke-opacity="1"
     stroke-miterlimit="10"
     d="M 96.001723 96.001723 L 190.998203 96.001723 "
     transform="matrix(0.752577, 0, 0, 0.752577, 0.376289, 0.376289)"
     id="path15" />
  <path
     fill="none"
     stroke-width="1"
     stroke-linecap="butt"
     stroke-linejoin="miter"
     stroke="rgb(0%, 0%, 0%)"
     stroke-opacity="1"
     stroke-miterlimit="10"
     d="M 96.001723 96.001723 L 96.157438 1.000054 "
     transform="matrix(0.752577, 0, 0, 0.752577, 0.376289, 0.376289)"
     id="path17" />
  <path
     fill="none"
     stroke-width="1"
     stroke-linecap="butt"
     stroke-linejoin="miter"
     stroke="rgb(0%, 0%, 0%)"
     stroke-opacity="1"
     stroke-miterlimit="10"
     d="M 96.001723 96.001723 L 96.157438 1.000054 "
     transform="matrix(0.752577, 0, 0, 0.752577, 0.376289, 0.376289)"
     id="path19" />
  <path
     fill="none"
     stroke-width="1"
     stroke-linecap="butt"
     stroke-linejoin="miter"
     stroke="rgb(0%, 0%, 0%)"
     stroke-opacity="1"
     stroke-miterlimit="10"
     d="M 96.001723 96.001723 L 96.157438 1.000054 "
     transform="matrix(0.752577, 0, 0, 0.752577, 0.376289, 0.376289)"
     id="path21" />
  <path
     fill="none"
     stroke-width="1"
     stroke-linecap="butt"
     stroke-linejoin="miter"
     stroke="rgb(0%, 0%, 0%)"
     stroke-opacity="1"
     stroke-miterlimit="10"
     d="M 111.00226 96.001723 C 111.00226 85.999635 105.998621 81.001187 96.001723 81.001187 "
     transform="matrix(0.752577, 0, 0, 0.752577, 0.376289, 0.376289)"
     id="path23" />
  <path
     fill-rule="nonzero"
     fill="rgb(97.24884%, 80.778503%, 79.998779%)"
     fill-opacity="1"
     stroke-width="1"
     stroke-linecap="butt"
     stroke-linejoin="miter"
     stroke="rgb(72.158813%, 32.939148%, 31.369019%)"
     stroke-opacity="1"
     stroke-miterlimit="4"
     d="M 101.000172 96.001723 C 101.000172 96.660917 100.8756 97.299348 100.621266 97.911826 C 100.366932 98.524305 100.003597 99.064117 99.536452 99.536452 C 99.064117 100.003597 98.524305 100.366932 97.911826 100.621266 C 97.299348 100.8756 96.660917 101.000172 96.001723 101.000172 C 95.33734 101.000172 94.698909 100.8756 94.08643 100.621266 C 93.473951 100.366932 92.93414 100.003597 92.466995 99.536452 C 91.99466 99.064117 91.636515 98.524305 91.382181 97.911826 C 91.127847 97.299348 90.998084 96.660917 90.998084 96.001723 C 90.998084 95.33734 91.127847 94.698909 91.382181 94.08643 C 91.636515 93.473951 91.99466 92.93414 92.466995 92.466995 C 92.93414 91.99466 93.473951 91.636515 94.08643 91.382181 C 94.698909 91.127847 95.33734 90.998084 96.001723 90.998084 C 96.660917 90.998084 97.299348 91.127847 97.911826 91.382181 C 98.524305 91.636515 99.064117 91.99466 99.536452 92.466995 C 100.003597 92.93414 100.366932 93.473951 100.621266 94.08643 C 100.8756 94.698909 101.000172 95.33734 101.000172 96.001723 Z M 101.000172 96.001723 "
     transform="matrix(0.752577, 0, 0, 0.752577, 0.376289, 0.376289)"
     id="path25" />
  <path
     fill-rule="nonzero"
     fill="rgb(0%, 0%, 0%)"
     fill-opacity="1"
     stroke-width="13.402867"
     stroke-linecap="butt"
     stroke-linejoin="miter"
     stroke="rgb(0%, 0%, 0%)"
     stroke-opacity="0.1101"
     stroke-miterlimit="4"
     d="M 52.154664 289.095253 C 56.517576 317.028432 74.841809 349.466963 105.818488 385.960311 C 137.231458 422.453658 176.061379 441.376134 221.87196 441.826669 C 245.431688 441.826669 266.809959 435.969712 286.006774 423.805263 C 305.20359 412.091349 319.601201 397.223689 329.199608 379.202283 C 357.122248 421.102052 390.716675 441.826669 429.982887 441.826669 C 454.851489 441.826669 475.793469 434.618107 494.117701 420.200982 C 512.005643 405.333322 521.167759 385.509775 522.040342 361.180877 C 522.040342 341.807866 517.241138 326.039135 508.079022 313.874686 C 498.480614 302.160772 489.754789 294.501675 481.028964 291.798464 C 472.303139 289.545788 464.449896 288.194183 457.905528 288.194183 C 445.253081 288.194183 434.782091 291.798464 426.928849 299.007026 C 419.075606 306.215589 415.148985 316.127362 415.148985 327.841276 C 415.148985 358.477666 431.728052 379.652818 464.886188 390.916197 C 457.469236 399.476365 444.380499 403.981717 425.183684 403.981717 C 416.457859 403.981717 409.91349 403.531182 405.986869 402.179576 C 380.681976 391.366732 361.921452 369.29051 350.141588 335.950909 C 310.002793 188.625914 289.933396 102.5737 289.933396 77.794267 C 289.933396 59.322326 295.168891 45.806271 306.076172 38.147174 C 316.547162 30.037541 328.327026 25.982725 340.979472 25.982725 C 365.848073 25.982725 389.844092 36.795568 413.840111 58.871791 C 437.83613 80.948013 454.415198 107.980122 463.141023 139.968118 C 464.886188 146.726145 467.067644 150.330426 468.812809 150.780962 C 470.994265 151.682032 476.22976 152.132567 484.955585 153.033637 L 488.882206 153.033637 C 498.916905 153.033637 504.1524 150.330426 504.1524 144.924005 C 504.1524 144.473469 503.279818 140.869188 501.970944 134.111161 C 491.499954 95.815673 470.557974 62.476072 440.017586 33.191287 C 409.477199 3.455967 373.701316 -10.961158 333.12623 -10.961158 C 286.443066 -10.961158 251.103474 10.213994 227.107455 52.113763 C 199.621107 10.664529 168.208136 -10.060088 132.868545 -10.060088 L 127.196759 -10.060088 C 94.474915 -10.060088 70.915187 -1.49992 56.953867 16.070951 C 42.992547 33.191287 35.575596 51.663228 35.139305 71.03624 C 35.139305 92.211392 41.247382 109.782263 53.899829 122.847782 C 66.552275 136.363837 81.822469 143.121864 98.837827 143.121864 C 127.63305 143.121864 142.030661 129.155274 142.030661 101.222095 C 142.030661 87.70604 138.10404 75.992126 129.814506 66.080353 C 121.961264 56.16858 114.544313 49.410552 107.127361 45.806271 C 99.71041 42.652525 95.347497 40.850385 94.038624 40.850385 L 90.984585 39.949314 C 90.984585 39.498779 93.166041 38.147174 97.092662 35.894498 C 101.019284 34.092357 106.254779 31.839682 112.799148 29.136471 C 119.779808 26.43326 125.887885 25.532189 131.995963 25.982725 C 155.991981 25.982725 176.49767 40.850385 193.94932 71.03624 C 200.057398 81.849083 207.474349 104.375841 217.072757 139.067048 C 226.234873 173.758254 235.83328 209.801066 244.995397 247.195484 C 254.157513 284.139366 259.829299 306.215589 261.138173 312.973616 C 264.192212 330.995022 265.937377 344.060542 265.937377 352.170174 C 265.937377 370.642115 261.138173 384.15817 251.103474 391.817268 C 241.068776 399.9269 229.725203 403.981717 217.072757 403.981717 C 190.45899 403.981717 165.154098 393.168873 142.030661 371.993721 C 118.470934 350.818569 102.328158 323.335925 93.166041 289.996323 C 91.857167 284.139366 90.112002 280.535085 87.930546 280.08455 C 86.185381 279.18348 80.513595 278.732945 71.78777 277.831874 L 57.82645 277.831874 C 53.899829 281.886691 52.154664 285.490972 52.154664 289.095253 Z M 52.154664 289.095253 "
     transform="matrix(0.00895331, 0, 0, -0.00867024, 67.732262, 82.100277)"
     id="path27" />
  <path
     fill-rule="nonzero"
     fill="rgb(0%, 0%, 0%)"
     fill-opacity="1"
     stroke-width="18.957378"
     stroke-linecap="butt"
     stroke-linejoin="miter"
     stroke="rgb(0%, 0%, 0%)"
     stroke-opacity="0.0779"
     stroke-miterlimit="4"
     d="M 96.176898 584.745659 C 133.203026 638.911833 184.422504 666.313544 249.218228 666.313544 C 281.30754 666.313544 312.779749 657.392056 344.86906 640.186331 C 376.958371 622.980605 402.876661 591.755399 423.241031 547.785211 C 447.925117 492.981789 460.267159 416.511897 460.267159 320.287283 C 460.267159 216.415679 445.456708 137.396791 417.07001 83.230618 C 403.493763 55.191657 385.597801 32.887939 362.14792 15.682213 C 338.698038 -0.886264 318.333668 -11.082249 301.054808 -14.905744 C 283.775948 -18.729238 266.497088 -21.278235 249.835331 -21.915484 C 232.556471 -21.915484 215.277611 -20.003737 197.998751 -16.180242 C 180.719891 -11.719498 160.355521 -1.523513 136.905639 15.682213 C 113.455758 33.525188 95.559796 55.828906 81.983549 83.230618 C 53.596851 137.396791 38.786399 216.415679 38.786399 320.287283 C 38.786399 436.266619 57.916566 524.206995 96.176898 584.745659 Z M 320.802076 596.853392 C 301.054808 618.519861 277.604927 628.715847 249.835331 628.715847 C 222.065734 628.715847 197.998751 618.519861 178.251483 596.853392 C 161.589725 579.647666 150.481886 555.4322 144.927967 524.844244 C 139.374048 494.256287 136.905639 430.531377 136.905639 333.032265 C 136.905639 227.886163 139.374048 158.426011 144.927967 125.289058 C 150.481886 91.514856 162.206827 65.387643 180.719891 46.27017 C 199.850057 25.878199 222.682836 15.682213 249.835331 15.682213 C 276.370722 15.682213 299.203502 25.878199 317.716566 46.27017 C 337.463834 66.024892 349.188775 94.063852 354.125592 129.749802 C 358.445307 166.073001 361.530817 233.621405 362.14792 333.032265 C 362.14792 429.894128 359.062409 493.619038 354.125592 524.206995 C 348.571673 554.794951 337.463834 579.010417 320.802076 596.853392 Z M 320.802076 596.853392 "
     transform="matrix(0.00632999, 0, 0, -0.00612986, 73.149014, 83.400817)"
     id="path29" />
  <path
     fill-rule="nonzero"
     fill="rgb(0%, 0%, 0%)"
     fill-opacity="1"
     stroke-width="12.038859"
     stroke-linecap="butt"
     stroke-linejoin="miter"
     stroke="rgb(0%, 0%, 0%)"
     stroke-opacity="0.123"
     stroke-miterlimit="4"
     d="M 346.835307 337.931103 C 340.39909 337.931103 322.699494 341.850002 294.138783 348.904021 C 265.175807 356.34993 244.258103 359.876939 230.983406 359.876939 C 217.708709 359.876939 206.44533 358.70127 197.193269 355.95804 C 187.538944 353.214811 179.895936 350.079691 173.861983 346.160792 C 167.82803 341.850002 163.805395 338.322993 162.19634 335.187873 C 160.185023 331.660864 157.771441 328.133854 154.955597 323.823065 L 152.944279 319.904166 C 150.932961 317.944716 146.105799 317.160936 138.060528 317.160936 C 123.981304 317.160936 117.142823 319.512276 117.142823 324.998735 C 117.142823 328.525744 117.947351 332.836534 119.958668 339.106773 C 128.808466 364.971509 142.88769 387.309235 163.000867 406.119952 C 183.114045 424.53878 204.836276 435.903588 228.972089 439.822487 C 237.017359 441.390047 242.649049 442.173827 245.867157 442.173827 C 262.762226 442.173827 277.645977 436.295478 290.920674 424.930669 C 304.195371 413.565861 317.067804 402.592943 329.135711 392.011915 C 340.801354 381.430886 353.673787 375.552537 366.948484 375.160647 C 381.832235 375.160647 396.313723 386.133565 411.197474 408.079402 C 425.678961 430.025239 433.321968 440.998157 434.126496 440.998157 C 434.528759 441.781937 439.758185 442.173827 449.010247 442.173827 L 461.88268 442.173827 C 465.905315 437.863038 467.916633 435.511698 467.916633 433.944138 C 467.916633 431.200909 466.307579 426.498229 463.089471 419.8361 C 459.469099 413.173971 455.0442 406.511842 449.010247 399.065933 C 442.976294 391.620025 437.344604 384.174116 432.115178 377.120097 C 426.483488 369.674188 422.058589 363.403949 418.035954 357.91749 L 411.197474 348.904021 C 382.234498 314.809596 337.180982 270.134143 274.830132 214.093882 C 212.881547 158.05362 174.66651 121.999746 160.185023 105.932258 L 148.117116 94.17556 L 163.000867 92.99989 C 177.482355 92.99989 198.802323 89.472881 226.960771 82.026972 C 255.119219 74.581063 276.036923 71.054054 290.116147 71.054054 C 315.45875 71.054054 338.790036 77.324293 360.110004 89.864771 C 381.429971 102.797139 395.509195 119.256516 401.945412 140.026683 C 404.761257 145.905032 407.174838 149.823932 409.186156 150.999602 C 411.197474 152.175271 416.024636 152.959051 424.069907 152.959051 C 436.540077 152.959051 442.976294 149.823932 442.976294 143.161803 C 442.976294 139.634793 442.57403 136.499674 442.171766 134.148334 C 430.506124 92.608001 408.783892 58.513576 376.200545 31.08128 C 343.214935 3.648984 310.631588 -10.459054 278.048241 -10.850944 C 260.750908 -10.850944 245.464894 -5.364484 232.190197 6.000324 C 218.513236 17.365132 205.640803 28.72994 193.170633 40.094749 C 180.2982 51.459557 167.82803 56.946016 154.955597 56.946016 C 125.590358 56.946016 99.443228 36.959629 76.111942 -3.013145 C 72.089307 -8.499604 66.457617 -10.850944 58.81461 -10.850944 L 41.115014 -10.850944 C 37.092378 -6.932044 35.081061 -4.188815 35.081061 -1.837475 C 35.081061 7.959774 54.389711 36.567739 93.007011 83.986422 C 119.154141 114.161947 163.000867 157.269841 224.949453 214.093882 C 286.898039 270.526033 325.515339 306.579908 339.996826 321.863615 C 348.042097 332.836534 350.455679 337.931103 346.835307 337.931103 Z M 346.835307 337.931103 "
     transform="matrix(0.00971067, 0, 0, -0.00996772, 95.577308, 29.993403)"
     id="path31" />
  <path
     fill-rule="nonzero"
     fill="rgb(0%, 0%, 0%)"
     fill-opacity="1"
     d="M 75.78125 68.785156 L 76.308594 67.921875 L 76.628906 68.121094 L 76.101563 68.980469 Z M 76.902344 66.953125 L 77.492188 65.992188 L 77.8125 66.1875 L 77.222656 67.148438 Z M 78.050781 65.074219 L 78.691406 64.027344 L 79.011719 64.222656 L 78.371094 65.269531 Z M 79.269531 63.082031 L 79.820313 62.179688 L 80.140625 62.378906 L 79.589844 63.28125 Z M 80.414063 61.210938 L 81.046875 60.175781 L 81.367188 60.375 L 80.734375 61.410156 Z M 81.640625 59.203125 L 82.1875 58.308594 L 82.511719 58.503906 L 81.960938 59.398438 Z M 82.761719 57.371094 L 83.359375 56.394531 L 83.679688 56.589844 L 83.082031 57.566406 Z M 83.980469 55.378906 L 84.605469 54.351563 L 84.925781 54.550781 L 84.300781 55.574219 Z M 85.152344 53.460938 L 85.714844 52.539063 L 86.035156 52.734375 L 85.472656 53.65625 Z M 86.292969 51.59375 L 86.890625 50.617188 L 87.210938 50.816406 L 86.617188 51.789063 Z M 87.503906 49.617188 L 88.128906 48.589844 L 88.453125 48.785156 L 87.824219 49.8125 Z M 88.710938 47.640625 L 89.269531 46.730469 L 89.589844 46.925781 L 89.03125 47.835938 Z M 89.835938 45.800781 L 90.417969 44.851563 L 90.738281 45.046875 L 90.15625 45.996094 Z M 91.007813 43.882813 L 91.613281 42.894531 L 91.933594 43.089844 L 91.332031 44.078125 Z M 92.230469 41.886719 L 92.855469 40.859375 L 93.175781 41.058594 L 92.550781 42.082031 Z M 93.414063 39.945313 L 93.976563 39.027344 L 94.300781 39.222656 L 93.738281 40.140625 Z M 94.550781 38.09375 L 95.128906 37.144531 L 95.449219 37.339844 L 94.871094 38.289063 Z M 95.71875 36.179688 L 96.316406 35.203125 L 96.636719 35.398438 L 96.039063 36.378906 Z M 96.921875 34.210938 L 97.535156 33.207031 L 97.859375 33.402344 L 97.242188 34.410156 Z M 96.921875 34.210938 "
     id="path33" />
  <path
     fill-rule="nonzero"
     fill="rgb(0%, 0%, 0%)"
     fill-opacity="1"
     stroke-width="0.5"
     stroke-linecap="butt"
     stroke-linejoin="miter"
     stroke="rgb(0%, 0%, 0%)"
     stroke-opacity="1"
     stroke-miterlimit="10"
     d="M 99.83231 91.989469 L 99.972454 90.318129 L 100.408456 91.029227 L 101.249316 91.101894 Z M 99.83231 91.989469 "
     transform="matrix(0.752577, 0, 0, 0.752577, 0.376289, 0.376289)"
     id="path35" />
  <path
     fill-rule="nonzero"
     fill="rgb(0%, 0%, 0%)"
     fill-opacity="1"
     stroke-width="0.5"
     stroke-linecap="butt"
     stroke-linejoin="miter"
     stroke="rgb(0%, 0%, 0%)"
     stroke-opacity="1"
     stroke-miterlimit="10"
     d="M 130.710578 41.480741 L 130.570435 43.152081 L 130.118861 42.440983 L 129.288382 42.368316 Z M 130.710578 41.480741 "
     transform="matrix(0.752577, 0, 0, 0.752577, 0.376289, 0.376289)"
     id="path37" />
  <path
     fill-rule="nonzero"
     fill="rgb(0%, 0%, 0%)"
     fill-opacity="1"
     stroke-width="12.0564"
     stroke-linecap="butt"
     stroke-linejoin="miter"
     stroke="rgb(0%, 0%, 0%)"
     stroke-opacity="0.1139"
     stroke-miterlimit="4"
     d="M 20.799253 287.166052 C 21.735619 289.128357 22.203802 291.483122 23.140167 295.015271 C 23.60835 298.154959 25.481081 305.611717 27.821995 316.993084 C 30.631092 328.374452 33.908372 338.578436 38.122017 347.997499 C 41.867479 357.416562 47.01749 368.405468 53.103866 380.964219 C 59.190242 393.522969 65.744801 403.726954 72.767543 411.183712 C 80.258468 418.248009 89.153941 425.704767 98.98578 433.161525 C 108.817618 440.225822 120.054005 443.36551 132.226758 442.188127 C 151.422252 442.188127 168.276833 437.871056 182.790499 430.021837 C 197.772349 422.172618 208.07237 414.71586 214.158746 408.044024 C 219.77694 401.372188 223.522402 394.700352 224.926951 388.028516 C 226.331499 384.103906 227.267865 382.141602 228.20423 382.141602 C 228.672413 382.141602 231.48151 384.496367 236.163338 388.813438 C 267.999767 423.742462 304.986208 441.010744 347.122659 441.010744 L 349.931756 441.010744 C 381.768186 441.010744 406.113691 427.274611 422.031906 400.194805 C 427.181917 387.243594 429.991013 375.077305 429.991013 362.911015 C 429.991013 342.895507 425.777368 326.804608 416.881895 315.030779 C 408.454605 302.86449 399.559132 295.407732 391.131842 291.875583 C 382.236369 288.735896 373.809078 287.166052 365.849971 287.950974 C 352.740853 287.950974 341.972649 291.483122 334.013541 298.93988 C 326.054434 306.396639 321.840788 315.815701 321.840788 327.981991 C 321.840788 360.163788 340.5681 381.35668 378.022724 391.953125 C 363.509057 400.587266 351.336304 404.904337 341.972649 404.904337 C 304.518025 404.904337 270.340681 380.179297 238.972434 331.121678 C 232.417875 320.525233 227.267865 309.143865 223.990585 298.154959 C 220.713305 286.773591 209.476918 242.425504 189.813241 165.110697 C 167.340467 71.704991 154.231349 21.862451 150.95407 15.975537 C 142.526779 -2.077667 128.013113 -11.104269 107.881253 -11.104269 C 99.453962 -11.104269 92.431221 -9.141964 86.813027 -4.824894 C 81.663016 -0.900284 77.917554 3.024325 76.044823 6.948935 C 74.172092 10.873544 73.235726 14.405693 74.172092 17.152919 C 74.172092 25.78706 87.28121 83.086359 113.967629 189.050815 C 140.654048 295.015271 154.231349 353.884413 154.231349 366.050703 C 154.231349 391.953125 145.335876 404.904337 128.013113 404.904337 C 113.967629 404.904337 101.794876 395.485274 91.963038 377.039609 C 82.131199 358.201484 74.172092 338.185975 68.085715 315.815701 C 61.999339 293.837888 58.253877 282.06406 56.849328 280.101755 C 55.44478 278.531911 50.294769 278.13945 40.931113 278.13945 L 26.88563 278.13945 C 23.140167 282.06406 20.799253 284.811286 20.799253 287.166052 Z M 20.799253 287.166052 "
     transform="matrix(0.00834343, 0, 0, -0.00995322, 82.783494, 45.041821)"
     id="path39" />
  <path
     fill-rule="nonzero"
     fill="rgb(0%, 0%, 0%)"
     fill-opacity="1"
     d="M 106.710938 75.121094 C 106.832031 74.753906 106.953125 74.382813 107.066406 74.011719 L 107.425781 74.125 C 107.3125 74.496094 107.191406 74.871094 107.066406 75.242188 Z M 107.398438 72.90625 C 107.503906 72.535156 107.605469 72.167969 107.703125 71.800781 L 108.070313 71.898438 C 107.96875 72.265625 107.867188 72.636719 107.761719 73.007813 Z M 107.984375 70.699219 C 108.074219 70.332031 108.15625 69.964844 108.238281 69.601563 L 108.605469 69.679688 C 108.523438 70.050781 108.4375 70.417969 108.351563 70.789063 Z M 108.464844 68.503906 C 108.535156 68.140625 108.601563 67.777344 108.664063 67.414063 L 109.035156 67.476563 C 108.972656 67.84375 108.90625 68.210938 108.832031 68.578125 Z M 108.839844 66.324219 C 108.894531 65.960938 108.941406 65.597656 108.988281 65.238281 L 109.363281 65.285156 C 109.316406 65.648438 109.265625 66.011719 109.210938 66.378906 Z M 109.113281 64.128906 C 109.152344 63.75 109.183594 63.371094 109.214844 62.992188 L 109.589844 63.023438 C 109.558594 63.402344 109.527344 63.785156 109.488281 64.167969 Z M 109.285156 61.863281 C 109.304688 61.484375 109.316406 61.109375 109.328125 60.730469 L 109.703125 60.742188 C 109.691406 61.121094 109.679688 61.5 109.660156 61.878906 Z M 109.339844 59.605469 C 109.339844 59.230469 109.335938 58.855469 109.324219 58.484375 L 109.699219 58.472656 C 109.710938 58.851563 109.714844 59.226563 109.714844 59.605469 Z M 109.28125 57.363281 C 109.261719 56.992188 109.238281 56.617188 109.207031 56.246094 L 109.582031 56.21875 C 109.613281 56.59375 109.636719 56.96875 109.65625 57.34375 Z M 109.105469 55.132813 C 109.066406 54.765625 109.023438 54.394531 108.976563 54.023438 L 109.347656 53.976563 C 109.398438 54.347656 109.441406 54.722656 109.480469 55.09375 Z M 108.816406 52.921875 C 108.757813 52.554688 108.695313 52.1875 108.628906 51.820313 L 109 51.753906 C 109.066406 52.121094 109.128906 52.492188 109.1875 52.863281 Z M 108.410156 50.722656 C 108.335938 50.359375 108.253906 49.992188 108.167969 49.628906 L 108.53125 49.542969 C 108.621094 49.910156 108.703125 50.277344 108.78125 50.644531 Z M 107.894531 48.539063 C 107.796875 48.175781 107.695313 47.8125 107.589844 47.449219 L 107.953125 47.34375 C 108.058594 47.710938 108.160156 48.074219 108.257813 48.441406 Z M 107.257813 46.363281 C 107.144531 46.003906 107.023438 45.644531 106.898438 45.28125 L 107.253906 45.160156 C 107.378906 45.523438 107.5 45.886719 107.617188 46.25 Z M 106.515625 44.214844 C 106.386719 43.875 106.253906 43.535156 106.121094 43.195313 L 106.46875 43.054688 C 106.605469 43.398438 106.738281 43.738281 106.867188 44.082031 Z M 105.699219 42.179688 C 105.554688 41.839844 105.40625 41.503906 105.253906 41.167969 L 105.597656 41.011719 C 105.75 41.351563 105.902344 41.691406 106.046875 42.03125 Z M 104.78125 40.15625 C 104.621094 39.820313 104.457031 39.484375 104.285156 39.148438 L 104.621094 38.980469 C 104.792969 39.316406 104.960938 39.65625 105.121094 39.992188 Z M 103.761719 38.144531 C 103.585938 37.808594 103.402344 37.476563 103.214844 37.144531 L 103.542969 36.957031 C 103.730469 37.292969 103.914063 37.628906 104.09375 37.96875 Z M 102.640625 36.144531 C 102.445313 35.8125 102.242188 35.480469 102.039063 35.148438 L 102.359375 34.949219 C 102.566406 35.285156 102.765625 35.617188 102.964844 35.953125 Z M 102.640625 36.144531 "
     id="path41" />
  <path
     fill-rule="nonzero"
     fill="rgb(0%, 0%, 0%)"
     fill-opacity="1"
     stroke-width="0.5"
     stroke-linecap="butt"
     stroke-linejoin="miter"
     stroke="rgb(0%, 0%, 0%)"
     stroke-opacity="1"
     stroke-miterlimit="10"
     d="M 141.179811 100.470742 L 140.941048 98.809782 L 141.527574 99.401499 L 142.358054 99.282118 Z M 141.179811 100.470742 "
     transform="matrix(0.752577, 0, 0, 0.752577, 0.376289, 0.376289)"
     id="path43" />
  <path
     fill-rule="nonzero"
     fill="rgb(0%, 0%, 0%)"
     fill-opacity="1"
     stroke-width="0.5"
     stroke-linecap="butt"
     stroke-linejoin="miter"
     stroke="rgb(0%, 0%, 0%)"
     stroke-opacity="1"
     stroke-miterlimit="10"
     d="M 134.302402 44.470468 L 135.729789 45.342471 L 134.899309 45.430709 L 134.458117 46.141808 Z M 134.302402 44.470468 "
     transform="matrix(0.752577, 0, 0, 0.752577, 0.376289, 0.376289)"
     id="path45" />
  <path
     fill-rule="nonzero"
     fill="rgb(0%, 0%, 0%)"
     fill-opacity="1"
     stroke-width="12.478513"
     stroke-linecap="butt"
     stroke-linejoin="miter"
     stroke="rgb(0%, 0%, 0%)"
     stroke-opacity="0.1193"
     stroke-miterlimit="4"
     d="M 35.069134 199.964812 C 35.069134 268.003576 48.067585 339.753546 74.064486 414.802365 C 100.061387 490.263541 135.400924 555.415812 180.083098 609.846824 C 224.765272 664.690192 271.072252 696.029259 319.004038 703.864026 C 319.816441 703.864026 322.253651 703.864026 327.12807 703.864026 C 331.596287 703.864026 335.658303 704.276382 338.907916 705.101094 C 375.059856 702.214601 403.087765 686.132711 422.991643 656.030713 C 448.988544 616.032166 461.986994 562.425867 461.986994 494.799458 C 461.986994 418.513571 446.957536 340.165902 416.898619 260.993522 C 386.839702 181.821141 348.656754 116.66887 301.943572 65.949063 C 255.23039 15.229257 210.548217 -9.924468 167.897051 -9.924468 L 160.991624 -9.924468 C 137.025731 -9.924468 116.30945 -3.32677 98.842782 9.868627 C 81.782316 23.47638 68.783865 40.795338 59.847431 63.06257 C 51.317197 84.917446 44.817972 107.184678 41.162158 129.864266 C 37.100142 152.543855 35.069134 176.048155 35.069134 199.964812 Z M 383.183888 566.137072 C 383.183888 634.175837 365.311018 667.989041 329.971481 667.989041 C 306.005588 667.989041 282.852098 653.14422 260.104809 623.042221 C 237.357521 592.940222 218.672248 559.127018 204.048991 521.190252 C 189.425734 482.84113 178.05209 449.852638 169.928059 420.987708 C 161.804027 392.535133 157.742011 375.628531 156.929608 371.092614 C 189.831936 370.267901 221.921861 369.855545 254.011786 369.855545 L 351.093963 371.092614 C 351.500165 371.50497 354.343576 382.638586 358.811793 404.081106 C 363.686212 425.523625 368.966833 451.914419 375.059856 484.078198 C 381.15288 515.829622 383.590089 543.457484 383.183888 566.137072 Z M 113.059838 131.926047 C 113.059838 61.413146 130.526505 25.950517 165.866043 25.950517 C 176.021082 25.950517 186.582323 29.249366 197.955968 35.847064 C 209.329612 42.857119 223.140466 55.227803 238.982327 74.196186 C 254.824189 92.752213 271.072252 121.617143 286.914114 161.203334 C 303.162177 200.377168 319.004038 249.035194 334.8459 307.177411 L 340.12652 324.084013 L 145.149762 324.084013 C 145.149762 322.022232 141.90015 309.239191 135.807126 286.147247 C 130.120304 262.642946 124.839683 236.664509 119.965264 207.799579 C 115.497047 179.347004 113.059838 154.193279 113.059838 131.926047 Z M 113.059838 131.926047 "
     transform="matrix(0.00961653, 0, 0, -0.009473, 110.631507, 52.585673)"
     id="path47" />
</svg>
